{"asset":{"version":"2.0","generator":"THREE.GLTFExporter"},"scenes":[{"nodes":[0]}],"scene":0,"nodes":[{"matrix":[1,0,0,0,0,-1.3435885648505064e-7,-0.9999999657714511,0,0,0.9999999657714511,-1.3435885648505064e-7,0,0,0,0,1],"name":"视频展区屏幕","extras":{"name":"视频展区屏幕"},"mesh":0}],"bufferViews":[{"buffer":0,"byteOffset":0,"byteLength":576,"target":34962,"byteStride":12},{"buffer":0,"byteOffset":576,"byteLength":576,"target":34962,"byteStride":12},{"buffer":0,"byteOffset":1152,"byteLength":384,"target":34962,"byteStride":8},{"buffer":0,"byteOffset":1536,"byteLength":384,"target":34962,"byteStride":8},{"buffer":0,"byteOffset":1920,"byteLength":96,"target":34963}],"buffers":[{"byteLength":2016,"uri":"data:application/octet-stream;base64,"}],"accessors":[{"bufferView":0,"componentType":5126,"count":48,"max":[7.375485420227051,1.7098091840744019,3.1923599243164062],"min":[4.027558326721191,-1.6381185054779053,1.2308272123336792],"type":"VEC3"},{"bufferView":1,"componentType":5126,"count":48,"max":[0.9659260511398315,0.9659258723258972,-0.2588183283805847],"min":[-0.9659259915351868,-0.9659258723258972,-0.422618567943573],"type":"VEC3"},{"bufferView":2,"componentType":5126,"count":48,"max":[0.6091886758804321,0.6630274057388306],"min":[0.006519894115626812,0.006331026554107666],"type":"VEC2"},{"bufferView":3,"componentType":5126,"count":48,"max":[0.413222998380661,0.2600509524345398],"min":[0.375,0.2053634524345398],"type":"VEC2"},{"bufferView":4,"componentType":5123,"count":48,"max":[47],"min":[0],"type":"SCALAR"}],"materials":[{"pbrMetallicRoughness":{"baseColorFactor":[0.800000011920929,0.800000011920929,0.800000011920929,1],"metallicFactor":0,"roughnessFactor":1},"emissiveFactor":[0.799102783203125,0.799102783203125,0.799102783203125],"doubleSided":true,"name":"White"}],"meshes":[{"primitives":[{"mode":4,"attributes":{"POSITION":0,"NORMAL":1,"TEXCOORD_0":2,"TEXCOORD_1":3},"indices":4,"material":0}]}]}