{"asset":{"version":"2.0","generator":"THREE.GLTFExporter"},"scenes":[{"nodes":[0]}],"scene":0,"nodes":[{"matrix":[2.1610000133514404,0,0,0,0,-2.9034945862443104e-7,-2.160999700964975,0,0,2.160999700964975,-2.9034945862443104e-7,0,0,0,0,1],"name":"自发光面（非）","extras":{"name":"自发光面（非）"},"mesh":0}],"bufferViews":[{"buffer":0,"byteOffset":0,"byteLength":8880,"target":34962,"byteStride":12},{"buffer":0,"byteOffset":8880,"byteLength":8880,"target":34962,"byteStride":12},{"buffer":0,"byteOffset":17760,"byteLength":5920,"target":34962,"byteStride":8},{"buffer":0,"byteOffset":23680,"byteLength":5920,"target":34962,"byteStride":8},{"buffer":0,"byteOffset":29600,"byteLength":5920,"target":34962,"byteStride":8},{"buffer":0,"byteOffset":35520,"byteLength":1908,"target":34963}],"buffers":[{"byteLength":37428,"uri":"data:application/octet-stream;base64,"}],"accessors":[{"bufferView":0,"componentType":5126,"count":740,"max":[8.149435043334961,7.082421779632568,2.1499221324920654],"min":[-6.876404762268066,-4.680976867675781,0.013134121894836426],"type":"VEC3"},{"bufferView":1,"componentType":5126,"count":740,"max":[1,1,1],"min":[-1,-1,-1],"type":"VEC3"},{"bufferView":2,"componentType":5126,"count":740,"max":[91.38284301757812,5.481861591339111],"min":[-90.3828353881836,-4.4818620681762695],"type":"VEC2"},{"bufferView":3,"componentType":5126,"count":740,"max":[0.9961543083190918,1],"min":[0,0.03502684831619263],"type":"VEC2"},{"bufferView":4,"componentType":5126,"count":740,"max":[1,1],"min":[0,0],"type":"VEC2"},{"bufferView":5,"componentType":5123,"count":954,"max":[739],"min":[0],"type":"SCALAR"}],"materials":[{"pbrMetallicRoughness":{"metallicFactor":1,"roughnessFactor":1},"emissiveFactor":[1,1,1],"doubleSided":true,"name":"zifaguang"}],"meshes":[{"primitives":[{"mode":4,"attributes":{"POSITION":0,"NORMAL":1,"TEXCOORD_0":2,"TEXCOORD_1":3,"TEXCOORD_2":4},"indices":5,"material":0}]}]}