{"asset":{"version":"2.0","generator":"THREE.GLTFExporter"},"scenes":[{"nodes":[0]}],"scene":0,"nodes":[{"matrix":[1,0,0,0,0,-1.3435885648505064e-7,-0.9999999657714511,0,0,0.9999999657714511,-1.3435885648505064e-7,0,0,0,0,1],"name":"蓝色墙体","extras":{"name":"蓝色墙体"},"mesh":0}],"bufferViews":[{"buffer":0,"byteOffset":0,"byteLength":40248,"target":34962,"byteStride":12},{"buffer":0,"byteOffset":40248,"byteLength":40248,"target":34962,"byteStride":12},{"buffer":0,"byteOffset":80496,"byteLength":26832,"target":34962,"byteStride":8},{"buffer":0,"byteOffset":107328,"byteLength":7464,"target":34963}],"buffers":[{"byteLength":114792,"uri":"data:application/octet-stream;base64,"}],"accessors":[{"bufferView":0,"componentType":5126,"count":3354,"max":[17.696006774902344,17.24160385131836,4.362807273864746],"min":[-17.492341995239258,-11.923584938049316,-0.05523884296417236],"type":"VEC3"},{"bufferView":1,"componentType":5126,"count":3354,"max":[1,1,1],"min":[-1,-1,-1],"type":"VEC3"},{"bufferView":2,"componentType":5126,"count":3354,"max":[0.9989989995956421,0.9989989995956421],"min":[0.0010010009864345193,0.0010010004043579102],"type":"VEC2"},{"bufferView":3,"componentType":5123,"count":3732,"max":[3353],"min":[0],"type":"SCALAR"}],"materials":[{"pbrMetallicRoughness":{"metallicFactor":1,"roughnessFactor":1},"emissiveFactor":[1,1,1],"emissiveTexture":{"index":0},"doubleSided":true,"name":"展厅墙壁"}],"textures":[{"sampler":0,"source":0}],"samplers":[{"magFilter":9729,"minFilter":9987,"wrapS":10497,"wrapT":10497}],"images":[{"mimeType":"image/jpeg","uri":"data:image/jpeg;base64,"}],"meshes":[{"primitives":[{"mode":4,"attributes":{"POSITION":0,"NORMAL":1,"TEXCOORD_0":2},"indices":3,"material":0}]}]}