{"asset":{"version":"2.0","generator":"THREE.GLTFExporter"},"scenes":[{"nodes":[0]}],"scene":0,"nodes":[{"matrix":[1,0,0,0,0,-1.3435885648505064e-7,-0.9999999657714511,0,0,0.9999999657714511,-1.3435885648505064e-7,0,0,0,0,1],"name":"专利证书展区纪念板主体","extras":{"name":"专利证书展区纪念板主体"},"mesh":0}],"bufferViews":[{"buffer":0,"byteOffset":0,"byteLength":9936,"target":34962,"byteStride":12},{"buffer":0,"byteOffset":9936,"byteLength":9936,"target":34962,"byteStride":12},{"buffer":0,"byteOffset":19872,"byteLength":6624,"target":34962,"byteStride":8},{"buffer":0,"byteOffset":26496,"byteLength":1776,"target":34963}],"buffers":[{"byteLength":28272,"uri":"data:application/octet-stream;base64,"}],"accessors":[{"bufferView":0,"componentType":5126,"count":828,"max":[8.033469200134277,9.879613876342773,3.118666172027588],"min":[3.515561103820801,9.357962608337402,0.1117546558380127],"type":"VEC3"},{"bufferView":1,"componentType":5126,"count":828,"max":[1.0000001192092896,1,1],"min":[-1,-1,-0.994524359703064],"type":"VEC3"},{"bufferView":2,"componentType":5126,"count":828,"max":[0.9989989995956421,0.9989989995956421],"min":[0.0010010009864345193,0.0010010004043579102],"type":"VEC2"},{"bufferView":3,"componentType":5123,"count":888,"max":[827],"min":[0],"type":"SCALAR"}],"materials":[{"pbrMetallicRoughness":{"metallicFactor":1,"roughnessFactor":1},"emissiveFactor":[1,1,1],"emissiveTexture":{"index":0},"doubleSided":true,"name":"专利证书展区纪念板主体"}],"textures":[{"sampler":0,"source":0}],"samplers":[{"magFilter":9729,"minFilter":9987,"wrapS":10497,"wrapT":10497}],"images":[{"mimeType":"image/jpeg","uri":"data:image/jpeg;base64,"}],"meshes":[{"primitives":[{"mode":4,"attributes":{"POSITION":0,"NORMAL":1,"TEXCOORD_0":2},"indices":3,"material":0}]}]}