{"asset":{"version":"2.0","generator":"THREE.GLTFExporter"},"scenes":[{"nodes":[0]}],"scene":0,"nodes":[{"matrix":[1.2225250005722046,0,0,0,0,-1.6425704508444346e-7,-1.2225248395176624,0,0,0.8293132498120521,-1.114255837265845e-7,0,0,0,0,1],"name":"红色立柱","extras":{"name":"红色立柱"},"mesh":0}],"bufferViews":[{"buffer":0,"byteOffset":0,"byteLength":8928,"target":34962,"byteStride":12},{"buffer":0,"byteOffset":8928,"byteLength":8928,"target":34962,"byteStride":12},{"buffer":0,"byteOffset":17856,"byteLength":5952,"target":34962,"byteStride":8},{"buffer":0,"byteOffset":23808,"byteLength":2160,"target":34963}],"buffers":[{"byteLength":25968,"uri":"data:application/octet-stream;base64,"}],"accessors":[{"bufferView":0,"componentType":5126,"count":744,"max":[6.374627113342285,1.7166928052902222,4.71415376663208],"min":[2.9675745964050293,-1.6543610095977783,0.013174640014767647],"type":"VEC3"},{"bufferView":1,"componentType":5126,"count":744,"max":[0.9998827576637268,0.9826459884643555,0.39923056960105896],"min":[-0.9998828172683716,-0.9826462268829346,-0.3937952518463135],"type":"VEC3"},{"bufferView":2,"componentType":5126,"count":744,"max":[0.9989989995956421,0.9989989995956421],"min":[0.0010010009864345193,0.0010010004043579102],"type":"VEC2"},{"bufferView":3,"componentType":5123,"count":1080,"max":[743],"min":[0],"type":"SCALAR"}],"materials":[{"pbrMetallicRoughness":{"metallicFactor":1,"roughnessFactor":1},"emissiveFactor":[1,1,1],"emissiveTexture":{"index":0},"doubleSided":true,"name":"红色立柱"}],"textures":[{"sampler":0,"source":0}],"samplers":[{"magFilter":9729,"minFilter":9987,"wrapS":10497,"wrapT":10497}],"images":[{"mimeType":"image/jpeg","uri":"data:image/jpeg;base64,"}],"meshes":[{"primitives":[{"mode":4,"attributes":{"POSITION":0,"NORMAL":1,"TEXCOORD_0":2},"indices":3,"material":0}]}]}