{"asset":{"version":"2.0","generator":"THREE.GLTFExporter"},"scenes":[{"nodes":[0]}],"scene":0,"nodes":[{"matrix":[0.008507873862981796,0,0,0,0,0.008507873862981796,0,0,0,0,0.008507873862981796,0,0,0,0,1],"name":"专利证书展区地面","extras":{"name":"专利证书展区地面"},"mesh":0}],"bufferViews":[{"buffer":0,"byteOffset":0,"byteLength":144,"target":34962,"byteStride":12},{"buffer":0,"byteOffset":144,"byteLength":144,"target":34962,"byteStride":12},{"buffer":0,"byteOffset":288,"byteLength":96,"target":34962,"byteStride":8},{"buffer":0,"byteOffset":384,"byteLength":24,"target":34963}],"buffers":[{"byteLength":408,"uri":"data:application/octet-stream;base64,"}],"accessors":[{"bufferView":0,"componentType":5126,"count":12,"max":[1875.6839599609375,13.606603622436523,-1091.379150390625],"min":[-727.1717529296875,1.4333405494689941,-2026.547119140625],"type":"VEC3"},{"bufferView":1,"componentType":5126,"count":12,"max":[0,1,1],"min":[0,0,-4.8949896580552377e-8],"type":"VEC3"},{"bufferView":2,"componentType":5126,"count":12,"max":[0.9989989995956421,0.9989989995956421],"min":[0.0010010009864345193,0.0010010004043579102],"type":"VEC2"},{"bufferView":3,"componentType":5123,"count":12,"max":[11],"min":[0],"type":"SCALAR"}],"materials":[{"pbrMetallicRoughness":{"metallicFactor":1,"roughnessFactor":1},"emissiveFactor":[1,1,1],"emissiveTexture":{"index":0},"doubleSided":true,"name":"专利证书展区地板"}],"textures":[{"sampler":0,"source":0}],"samplers":[{"magFilter":9729,"minFilter":9987,"wrapS":10497,"wrapT":10497}],"images":[{"mimeType":"image/jpeg","uri":"data:image/jpeg;base64,"}],"meshes":[{"primitives":[{"mode":4,"attributes":{"POSITION":0,"NORMAL":1,"TEXCOORD_0":2},"indices":3,"material":0}]}]}