{"asset":{"version":"2.0","generator":"THREE.GLTFExporter"},"scenes":[{"nodes":[0]}],"scene":0,"nodes":[{"matrix":[0.009999999776482582,0,0,0,0,0.009999999776482582,0,0,0,0,0.009999999776482582,0,0,0,0,1],"name":"顶棚","extras":{"name":"顶棚"},"mesh":0}],"bufferViews":[{"buffer":0,"byteOffset":0,"byteLength":648,"target":34962,"byteStride":12},{"buffer":0,"byteOffset":648,"byteLength":648,"target":34962,"byteStride":12},{"buffer":0,"byteOffset":1296,"byteLength":432,"target":34962,"byteStride":8},{"buffer":0,"byteOffset":1728,"byteLength":120,"target":34963}],"buffers":[{"byteLength":1848,"uri":"data:application/octet-stream;base64,"}],"accessors":[{"bufferView":0,"componentType":5126,"count":54,"max":[1733.097900390625,473.1060791015625,862.994873046875],"min":[-1645.5670166015625,368.4470520019531,-1635.996337890625],"type":"VEC3"},{"bufferView":1,"componentType":5126,"count":54,"max":[0.00000815375278762076,-0.9999999403953552,0.00004781398820341565],"min":[-1.635894051332798e-7,-1,0],"type":"VEC3"},{"bufferView":2,"componentType":5126,"count":54,"max":[0.9989989995956421,0.9989989995956421],"min":[0.0010010009864345193,0.0010010004043579102],"type":"VEC2"},{"bufferView":3,"componentType":5123,"count":60,"max":[53],"min":[0],"type":"SCALAR"}],"materials":[{"pbrMetallicRoughness":{"metallicFactor":1,"roughnessFactor":1},"emissiveFactor":[1,1,1],"emissiveTexture":{"index":0},"doubleSided":true,"name":"顶棚"}],"textures":[{"sampler":0,"source":0}],"samplers":[{"magFilter":9729,"minFilter":9987,"wrapS":10497,"wrapT":10497}],"images":[{"mimeType":"image/jpeg","uri":"data:image/jpeg;base64,"}],"meshes":[{"primitives":[{"mode":4,"attributes":{"POSITION":0,"NORMAL":1,"TEXCOORD_0":2},"indices":3,"material":0}]}]}