{"asset":{"version":"2.0","generator":"THREE.GLTFExporter"},"scenes":[{"nodes":[0]}],"scene":0,"nodes":[{"matrix":[0.4181320369243622,0,0,0,0,3.6625075340270996,0,0,0,0,0.4181320369243622,0,0,0,0,1],"name":"优秀论文展区论文展示框","extras":{"name":"优秀论文展区论文展示框"},"mesh":0}],"bufferViews":[{"buffer":0,"byteOffset":0,"byteLength":32640,"target":34962,"byteStride":12},{"buffer":0,"byteOffset":32640,"byteLength":32640,"target":34962,"byteStride":12},{"buffer":0,"byteOffset":65280,"byteLength":21760,"target":34962,"byteStride":8},{"buffer":0,"byteOffset":87040,"byteLength":5724,"target":34963}],"buffers":[{"byteLength":92764,"uri":"data:application/octet-stream;base64,"}],"accessors":[{"bufferView":0,"componentType":5126,"count":2720,"max":[39.377349853515625,0.9832830429077148,28.89637565612793],"min":[-32.88172912597656,-0.027869045734405518,-41.146629333496094],"type":"VEC3"},{"bufferView":1,"componentType":5126,"count":2720,"max":[1,1,1],"min":[-1,-1,-1],"type":"VEC3"},{"bufferView":2,"componentType":5126,"count":2720,"max":[0.9989989995956421,0.9989989995956421],"min":[0.0010010009864345193,0.0010010004043579102],"type":"VEC2"},{"bufferView":3,"componentType":5123,"count":2862,"max":[2719],"min":[0],"type":"SCALAR"}],"materials":[{"pbrMetallicRoughness":{"metallicFactor":1,"roughnessFactor":1},"emissiveFactor":[1,1,1],"emissiveTexture":{"index":0},"doubleSided":true,"name":"优秀论文展区论文展示框"}],"textures":[{"sampler":0,"source":0}],"samplers":[{"magFilter":9729,"minFilter":9987,"wrapS":10497,"wrapT":10497}],"images":[{"mimeType":"image/jpeg","uri":"data:image/jpeg;base64,"}],"meshes":[{"primitives":[{"mode":4,"attributes":{"POSITION":0,"NORMAL":1,"TEXCOORD_0":2},"indices":3,"material":0}]}]}