{"asset":{"version":"2.0","generator":"THREE.GLTFExporter"},"scenes":[{"nodes":[0]}],"scene":0,"nodes":[{"matrix":[0.28237661719322205,0,0,0,0,0.28237661719322205,0,0,0,0,0.10142561793327332,0,0,0,0,1],"name":"专利证书展区纪念板轮轴部件","extras":{"name":"专利证书展区纪念板轮轴部件"},"mesh":0}],"bufferViews":[{"buffer":0,"byteOffset":0,"byteLength":175104,"target":34962,"byteStride":12},{"buffer":0,"byteOffset":175104,"byteLength":175104,"target":34962,"byteStride":12},{"buffer":0,"byteOffset":350208,"byteLength":116736,"target":34962,"byteStride":8},{"buffer":0,"byteOffset":466944,"byteLength":31104,"target":34963}],"buffers":[{"byteLength":498048,"uri":"data:application/octet-stream;base64,"}],"accessors":[{"bufferView":0,"componentType":5126,"count":14592,"max":[18.08948516845703,9.103546142578125,-91.87168884277344],"min":[13.309545516967773,4.349791526794434,-97.8153305053711],"type":"VEC3"},{"bufferView":1,"componentType":5126,"count":14592,"max":[1.0000001192092896,1,1],"min":[-1.0000001192092896,-1,-1],"type":"VEC3"},{"bufferView":2,"componentType":5126,"count":14592,"max":[0.9989989995956421,0.9989989995956421],"min":[0.0010010009864345193,0.0010010004043579102],"type":"VEC2"},{"bufferView":3,"componentType":5123,"count":15552,"max":[14591],"min":[0],"type":"SCALAR"}],"materials":[{"pbrMetallicRoughness":{"metallicFactor":1,"roughnessFactor":1},"emissiveFactor":[1,1,1],"emissiveTexture":{"index":0},"doubleSided":true,"name":"专利证书展区纪念板轮轴部件"}],"textures":[{"sampler":0,"source":0}],"samplers":[{"magFilter":9729,"minFilter":9987,"wrapS":10497,"wrapT":10497}],"images":[{"mimeType":"image/jpeg","uri":"data:image/jpeg;base64,"}],"meshes":[{"primitives":[{"mode":4,"attributes":{"POSITION":0,"NORMAL":1,"TEXCOORD_0":2},"indices":3,"material":0}]}]}